<?xml version="1.0" encoding="utf-8"?>
<!-- Generator: Adobe Illustrator 16.0.4, SVG Export Plug-In . SVG Version: 6.00 Build 0)  -->
<!DOCTYPE svg PUBLIC "-//W3C//DTD SVG 1.1 Tiny//EN" "http://www.w3.org/Graphics/SVG/1.1/DTD/svg11-tiny.dtd">
<svg version="1.1" baseProfile="tiny" id="Layer_1" xmlns="http://www.w3.org/2000/svg" xmlns:xlink="http://www.w3.org/1999/xlink"
	 x="0px" y="0px" width="107px" height="30.5px" viewBox="184.469 45 107 30.5" xml:space="preserve">
<g>
	<g>
		<g>
			<path fill="#365992" d="M327.456,705.702h-38.692v-37.571h-23.973v99.256h23.973v-41.496h38.692v41.496h23.973v-99.256h-23.973
				V705.702z M401.334,668.131l-41.637,99.256h26.076l7.289-19.487h38.411l7.71,19.487h26.638l-41.216-99.256H401.334z
				 M399.932,728.693l12.617-34.066l12.337,34.066H399.932z M538.088,674.93c-3.506-2.383-7.619-4.11-12.338-5.186
				s-9.791-1.613-15.209-1.613h-36.45v99.256h23.972v-37.432h11.916c5.142,0,10.095-0.561,14.861-1.682
				c4.767-1.123,8.974-2.896,12.617-5.328c3.645-2.431,6.541-5.629,8.691-9.604c2.147-3.971,3.225-8.854,3.225-14.647
				c0-5.7-1.006-10.49-3.014-14.37C544.348,680.445,541.592,677.312,538.088,674.93z M523.998,704.65
				c-0.936,1.543-2.221,2.781-3.855,3.715c-1.635,0.936-3.481,1.591-5.536,1.963c-2.058,0.375-4.205,0.561-6.449,0.561h-10.093
				v-23.41h10.515c2.147,0,4.227,0.14,6.238,0.421c2.008,0.278,3.807,0.841,5.396,1.682c1.588,0.842,2.85,2.012,3.785,3.505
				c0.934,1.496,1.402,3.413,1.402,5.748C525.4,701.17,524.932,703.108,523.998,704.65z M625.006,674.93
				c-3.506-2.383-7.619-4.11-12.338-5.186c-4.721-1.074-9.791-1.613-15.211-1.613h-36.449v99.256h23.974v-37.432h11.916
				c5.139,0,10.094-0.561,14.86-1.682c4.767-1.123,8.972-2.896,12.617-5.328c3.646-2.431,6.539-5.629,8.691-9.604
				c2.147-3.971,3.225-8.854,3.225-14.647c0-5.7-1.006-10.49-3.016-14.37C631.266,680.445,628.51,677.312,625.006,674.93z
				 M610.916,704.65c-0.936,1.543-2.221,2.781-3.855,3.715c-1.637,0.936-3.481,1.591-5.536,1.963
				c-2.058,0.375-4.205,0.561-6.449,0.561H584.98v-23.41h10.514c2.149,0,4.229,0.14,6.24,0.421c2.008,0.278,3.807,0.841,5.396,1.682
				c1.588,0.842,2.85,2.012,3.785,3.505c0.934,1.496,1.401,3.413,1.401,5.748C612.318,701.17,611.85,703.108,610.916,704.65z
				 M647.926,767.387h24.113v-99.256h-24.113V767.387z M754.469,732.898h-0.42l-39.813-64.769h-27.336v99.256h23.271l-0.561-64.909
				h0.42l39.953,64.909h27.196V668.13h-23.271L754.469,732.898z M815.17,726.311h41.217v-19.207H815.17v-18.784h43.6v-20.188H792.04
				v99.256h69.254v-20.469H815.17V726.311z M902.648,687.407c1.307-0.793,2.778-1.331,4.416-1.612c1.633-0.28,3.246-0.42,4.836-0.42
				c3.084,0,6.285,0.771,9.604,2.312c3.316,1.543,6.004,3.622,8.061,6.237l15.281-16.121c-4.395-4.018-9.512-7.056-15.352-9.112
				c-5.842-2.056-11.566-3.084-17.174-3.084c-4.674,0-9.301,0.586-13.879,1.753c-4.58,1.169-8.691,3.015-12.336,5.538
				c-3.646,2.522-6.589,5.747-8.832,9.672c-2.242,3.926-3.365,8.646-3.365,14.16c0,4.485,0.723,8.295,2.174,11.425
				c1.447,3.132,3.365,5.796,5.748,7.991c2.383,2.196,5.092,3.995,8.131,5.396c3.035,1.402,6.145,2.619,9.322,3.646
				c3.271,1.028,6.188,1.985,8.762,2.872c2.57,0.89,4.719,1.871,6.449,2.943c1.729,1.076,3.061,2.269,3.996,3.576
				c0.932,1.309,1.399,2.896,1.399,4.766c0,1.963-0.372,3.646-1.12,5.047c-0.748,1.402-1.752,2.523-3.015,3.365
				c-1.262,0.84-2.733,1.449-4.416,1.822c-1.682,0.375-3.412,0.561-5.188,0.561c-3.927,0-7.875-1.004-11.847-3.014
				c-3.973-2.01-7.174-4.508-9.604-7.5L869,755.607c4.393,4.58,9.906,8.108,16.543,10.584c6.635,2.477,13.504,3.715,20.607,3.715
				c4.858,0,9.58-0.654,14.16-1.961c4.577-1.31,8.643-3.316,12.194-6.029c3.552-2.709,6.379-6.145,8.482-10.303
				c2.102-4.158,3.153-9.09,3.153-14.791c0-4.953-0.981-9.088-2.944-12.406c-1.961-3.316-4.439-6.098-7.431-8.342
				c-2.991-2.242-6.309-4.041-9.953-5.396c-3.645-1.354-7.149-2.594-10.514-3.716c-2.338-0.747-4.44-1.472-6.309-2.173
				c-1.871-0.701-3.482-1.473-4.838-2.312c-1.356-0.841-2.383-1.822-3.084-2.944c-0.699-1.121-1.051-2.523-1.051-4.205
				c0-1.963,0.442-3.574,1.331-4.836C900.24,689.23,901.338,688.203,902.648,687.407z M1016.621,716.076
				c-2.992-2.242-6.309-4.041-9.955-5.396c-3.645-1.354-7.148-2.594-10.514-3.716c-2.336-0.747-4.439-1.472-6.31-2.173
				c-1.871-0.701-3.481-1.473-4.836-2.312c-1.354-0.842-2.383-1.822-3.084-2.944c-0.701-1.121-1.053-2.523-1.053-4.205
				c0-1.963,0.442-3.574,1.332-4.836c0.889-1.262,1.983-2.289,3.295-3.085c1.309-0.793,2.778-1.331,4.416-1.612
				c1.635-0.28,3.246-0.42,4.836-0.42c3.086,0,6.285,0.771,9.604,2.312c3.315,1.543,6.004,3.622,8.061,6.237l15.281-16.121
				c-4.396-4.018-9.513-7.056-15.353-9.112c-5.842-2.056-11.563-3.084-17.172-3.084c-4.676,0-9.301,0.586-13.879,1.753
				c-4.58,1.169-8.691,3.015-12.338,5.538c-3.646,2.522-6.588,5.747-8.832,9.672c-2.242,3.926-3.363,8.646-3.363,14.16
				c0,4.485,0.724,8.295,2.172,11.425c1.449,3.132,3.365,5.796,5.748,7.991c2.384,2.196,5.095,3.995,8.131,5.396
				c3.037,1.402,6.146,2.619,9.322,3.646c3.271,1.028,6.191,1.985,8.765,2.873c2.567,0.889,4.717,1.87,6.446,2.942
				c1.729,1.076,3.062,2.269,3.996,3.576c0.935,1.309,1.402,2.896,1.402,4.766c0,1.964-0.375,3.646-1.123,5.048
				c-0.748,1.401-1.752,2.522-3.015,3.364c-1.262,0.84-2.731,1.449-4.416,1.822c-1.682,0.375-3.412,0.561-5.186,0.561
				c-3.926,0-7.875-1.004-11.848-3.014c-3.974-2.01-7.174-4.508-9.603-7.5l-15.701,15.98c4.392,4.58,9.904,8.108,16.541,10.584
				c6.636,2.477,13.507,3.715,20.609,3.715c4.856,0,9.578-0.654,14.158-1.961c4.578-1.31,8.645-3.316,12.196-6.029
				c3.552-2.709,6.38-6.145,8.48-10.303c2.104-4.158,3.154-9.09,3.154-14.791c0-4.953-0.98-9.088-2.943-12.406
				C1022.088,721.102,1019.611,718.32,1016.621,716.076z"/>
		</g>
	</g>
	<g>
		<g>
			<path fill="#4B76BB" d="M301.754,605.297h-7.422l-24.282,22.912h-0.071v-22.912h-5.188v51.014h5.188v-27.164h0.071l25.509,27.164
				h7.637l-27.164-27.885L301.754,605.297z M333.819,605.297l-22.05,51.014h5.692l5.548-13.401h26.372l5.62,13.401h5.765
				l-21.904-51.014H333.819z M324.956,638.152l11.24-27.093l11.241,27.093H324.956z M366.675,609.908h17.077v46.401h5.188v-46.401
				h17.077v-4.611h-39.342V609.908L366.675,609.908z M427.488,632.029h24.716v-4.611h-24.716v-17.51h26.443v-4.611H422.3v51.014
				h32.497v-4.61h-27.31L427.488,632.029L427.488,632.029z M526.057,634.189h11.892v15.491c-1.49,0.961-3.437,1.755-5.838,2.38
				c-2.402,0.625-5.043,0.936-7.927,0.936c-3.268,0-6.209-0.598-8.825-1.797c-2.619-1.199-4.841-2.808-6.664-4.82
				c-1.826-2.014-3.232-4.363-4.218-7.051c-0.983-2.687-1.477-5.514-1.477-8.488c0-2.973,0.492-5.803,1.477-8.488
				c0.985-2.685,2.392-5.048,4.218-7.086c1.823-2.036,4.045-3.655,6.664-4.854c2.616-1.199,5.559-1.799,8.825-1.799
				c3.172,0,5.98,0.517,8.433,1.549c2.448,1.033,4.562,2.486,6.34,4.359l3.604-3.604c-2.161-2.171-4.756-3.866-7.782-5.087
				c-3.025-1.221-6.582-1.83-10.664-1.83c-3.795,0-7.312,0.673-10.556,2.018c-3.241,1.347-6.053,3.206-8.432,5.584
				c-2.377,2.379-4.238,5.2-5.583,8.468c-1.345,3.267-2.018,6.844-2.018,10.733c0,3.894,0.659,7.472,1.981,10.736
				c1.32,3.268,3.158,6.09,5.511,8.467c2.354,2.379,5.164,4.24,8.431,5.584c3.268,1.346,6.819,2.019,10.664,2.019
				c3.459,0,6.797-0.41,10.016-1.229s6.221-2.07,9.008-3.756v-23.045h-17.078L526.057,634.189L526.057,634.189z M589.609,630.732
				c1.584-0.673,2.953-1.574,4.104-2.703c1.154-1.127,2.066-2.461,2.738-3.998c0.674-1.537,1.01-3.242,1.01-5.116
				c0-2.497-0.432-4.611-1.297-6.341c-0.865-1.73-2.078-3.135-3.639-4.215c-1.562-1.081-3.412-1.861-5.55-2.343
				c-2.139-0.479-4.455-0.721-6.952-0.721h-14.986v51.014h5.188v-23.85h8.646l14.123,23.85h6.34l-14.916-24.28
				C586.295,631.838,588.023,631.404,589.609,630.732z M570.227,627.994v-18.23h9.224c1.92,0,3.674,0.17,5.26,0.506
				c1.586,0.337,2.93,0.863,4.035,1.585c1.104,0.721,1.969,1.656,2.594,2.811c0.623,1.152,0.938,2.57,0.938,4.251
				c0,3.026-1.129,5.296-3.388,6.81c-2.26,1.513-5.477,2.271-9.655,2.271h-9.008V627.994z M622.033,632.029h24.715v-4.611h-24.715
				v-17.51h26.442v-4.611h-31.631v51.014h32.496v-4.61h-27.309L622.033,632.029L622.033,632.029z M693.943,634.189h11.889v15.491
				c-1.49,0.961-3.436,1.755-5.836,2.38c-2.404,0.625-5.045,0.936-7.928,0.936c-3.267,0-6.209-0.598-8.826-1.797
				c-2.619-1.199-4.84-2.808-6.664-4.82c-1.826-2.014-3.232-4.363-4.215-7.051c-0.986-2.687-1.479-5.514-1.479-8.488
				c0-2.973,0.492-5.803,1.479-8.488c0.981-2.686,2.389-5.048,4.215-7.086c1.824-2.036,4.045-3.655,6.664-4.854
				c2.617-1.199,5.561-1.799,8.826-1.799c3.172,0,5.979,0.517,8.432,1.549c2.449,1.033,4.562,2.486,6.34,4.359l3.604-3.604
				c-2.162-2.171-4.756-3.866-7.783-5.087c-3.025-1.221-6.58-1.83-10.664-1.83c-3.795,0-7.312,0.673-10.555,2.018
				c-3.242,1.347-6.054,3.206-8.431,5.584c-2.379,2.379-4.239,5.2-5.586,8.468c-1.344,3.267-2.018,6.844-2.018,10.733
				c0,3.894,0.66,7.472,1.981,10.736c1.32,3.268,3.158,6.09,5.513,8.467c2.354,2.379,5.164,4.24,8.432,5.584
				c3.266,1.346,6.82,2.019,10.662,2.019c3.459,0,6.797-0.41,10.016-1.229c3.22-0.819,6.222-2.07,9.008-3.756v-23.045h-17.075
				L693.943,634.189L693.943,634.189z M758.719,629.578v4.611h11.89v15.491c-1.49,0.961-3.437,1.755-5.837,2.38
				c-2.401,0.625-5.045,0.936-7.926,0.936c-3.268,0-6.209-0.598-8.826-1.797c-2.618-1.199-4.842-2.808-6.666-4.82
				c-1.825-2.014-3.229-4.363-4.215-7.051c-0.983-2.687-1.477-5.514-1.477-8.488c0-2.973,0.492-5.803,1.477-8.488
				c0.985-2.685,2.39-5.048,4.215-7.086c1.824-2.036,4.048-3.655,6.666-4.854c2.617-1.199,5.56-1.799,8.826-1.799
				c3.17,0,5.98,0.517,8.431,1.549c2.448,1.033,4.562,2.486,6.342,4.359l3.602-3.604c-2.162-2.171-4.756-3.866-7.781-5.087
				c-3.026-1.221-6.581-1.83-10.663-1.83c-3.796,0-7.314,0.673-10.558,2.018c-3.242,1.347-6.053,3.206-8.43,5.584
				c-2.379,2.379-4.24,5.2-5.584,8.468c-1.347,3.267-2.019,6.844-2.019,10.733c0,3.894,0.66,7.472,1.98,10.736
				c1.322,3.268,3.158,6.09,5.514,8.467c2.353,2.379,5.162,4.24,8.43,5.584c3.267,1.346,6.82,2.019,10.664,2.019
				c3.459,0,6.798-0.41,10.017-1.229c3.217-0.818,6.221-2.07,9.006-3.756v-23.045H758.719L758.719,629.578z"/>
		</g>
	</g>
	<g>
		<g>
			<path fill="#365992" d="M938.416,623.254c-0.402-0.205-0.854-0.346-1.354-0.418c-0.5-0.073-0.982-0.109-1.445-0.109h-3.326v6.007
				h2.961c0.512,0,1.037-0.044,1.574-0.128c0.535-0.086,1.022-0.237,1.461-0.454c0.439-0.22,0.799-0.535,1.08-0.947
				c0.279-0.412,0.42-0.945,0.42-1.603c0-0.604-0.127-1.098-0.383-1.475C939.146,623.752,938.818,623.461,938.416,623.254z
				 M912.508,624.855c-0.643-0.691-1.418-1.236-2.328-1.639c-0.91-0.399-1.912-0.601-3.004-0.601s-2.086,0.2-2.984,0.601
				c-0.896,0.401-1.674,0.946-2.327,1.639c-0.656,0.69-1.16,1.522-1.513,2.493c-0.352,0.972-0.526,2.015-0.526,3.13
				c0,1.166,0.182,2.237,0.547,3.221c0.362,0.983,0.867,1.826,1.51,2.531c0.644,0.702,1.414,1.254,2.312,1.653
				c0.897,0.4,1.893,0.603,2.983,0.603s2.088-0.201,2.984-0.603c0.897-0.399,1.676-0.951,2.33-1.653
				c0.655-0.705,1.164-1.548,1.528-2.531c0.363-0.982,0.545-2.055,0.545-3.221c0-1.115-0.182-2.158-0.545-3.13
				C913.654,626.379,913.15,625.547,912.508,624.855z M791.695,604.805v52h236v-52H791.695z M889.451,623.018h-10.81v5.314h9.974
				v5.131h-9.974v10.01h-6.151v-25.77h16.961V623.018z M920.17,636.066c-0.703,1.686-1.68,3.129-2.93,4.33
				c-1.25,1.2-2.736,2.129-4.459,2.784c-1.724,0.654-3.592,0.982-5.605,0.982c-2.013,0-3.875-0.328-5.586-0.982
				c-1.711-0.655-3.19-1.584-4.44-2.784c-1.25-1.201-2.228-2.646-2.931-4.33c-0.703-1.688-1.055-3.55-1.055-5.589
				c0-2.062,0.352-3.924,1.055-5.586c0.703-1.661,1.681-3.075,2.931-4.239c1.25-1.166,2.729-2.062,4.44-2.693
				s3.572-0.947,5.586-0.947s3.883,0.316,5.605,0.947c1.722,0.631,3.209,1.527,4.459,2.693c1.25,1.164,2.227,2.578,2.93,4.239
				c0.703,1.662,1.057,3.523,1.057,5.586C921.227,632.518,920.873,634.379,920.17,636.066z M940.043,643.473l-5.596-10.229h-2.121
				v10.229h-6.078v-25.77h9.828c1.236,0,2.443,0.128,3.621,0.383c1.176,0.254,2.231,0.686,3.166,1.292
				c0.934,0.606,1.68,1.407,2.238,2.401c0.559,0.996,0.838,2.233,0.838,3.713c0,1.748-0.476,3.217-1.42,4.404
				c-0.947,1.188-2.257,2.038-3.933,2.547l6.734,11.028L940.043,643.473L940.043,643.473z"/>
		</g>
	</g>
</g>
<g>
	<path fill="#365992" d="M237.969,49.5l4.051,8.729l9.449,1.203l-6.946,6.597l1.79,9.472l-8.344-4.65l-8.344,4.65l1.791-9.472
		l-6.947-6.597l9.45-1.203L237.969,49.5z"/>
	<g>
		<path fill="#4B76BB" d="M277.969,49.5l4.051,8.729l9.449,1.203l-6.946,6.597l1.79,9.472l-8.344-4.65l-8.344,4.65l1.791-9.472
			l-6.947-6.597l9.45-1.203L277.969,49.5z"/>
	</g>
	<g>
		<path fill="#4B76BB" d="M197.969,49.5l4.051,8.729l9.449,1.203l-6.946,6.597l1.79,9.472l-8.344-4.65l-8.344,4.65l1.791-9.472
			l-6.947-6.597l9.45-1.203L197.969,49.5z"/>
	</g>
</g>
</svg>
