<?xml version="1.0" encoding="utf-8"?>
<!-- Generator: Adobe Illustrator 16.0.4, SVG Export Plug-In . SVG Version: 6.00 Build 0)  -->
<!DOCTYPE svg PUBLIC "-//W3C//DTD SVG 1.1//EN" "http://www.w3.org/Graphics/SVG/1.1/DTD/svg11.dtd">
<svg version="1.1" id="Layer_1" xmlns="http://www.w3.org/2000/svg" xmlns:xlink="http://www.w3.org/1999/xlink" x="0px" y="0px"
	 width="475.938px" height="125px" viewBox="0 0 475.938 125" enable-background="new 0 0 475.938 125" xml:space="preserve">
<g>
	<g>
		<g>
			<path fill="#365992" d="M327.456,705.702h-38.692v-37.571h-23.973v99.256h23.973v-41.496h38.692v41.496h23.973v-99.256h-23.973
				V705.702z M401.334,668.131l-41.637,99.256h26.076l7.289-19.488h38.412l7.71,19.488h26.637l-41.216-99.256H401.334z
				 M399.932,728.693l12.617-34.066l12.337,34.066H399.932z M538.088,674.93c-3.506-2.383-7.619-4.111-12.338-5.186
				s-9.791-1.613-15.209-1.613h-36.45v99.256h23.972v-37.432h11.916c5.141,0,10.094-0.561,14.861-1.682
				c4.766-1.123,8.973-2.896,12.617-5.328c3.645-2.43,6.541-5.629,8.691-9.604c2.148-3.971,3.225-8.854,3.225-14.648
				c0-5.7-1.006-10.49-3.014-14.37C544.348,680.445,541.592,677.313,538.088,674.93z M523.998,704.65
				c-0.936,1.543-2.221,2.782-3.855,3.715c-1.635,0.936-3.482,1.591-5.537,1.963c-2.057,0.375-4.205,0.561-6.449,0.561h-10.093
				v-23.411h10.515c2.148,0,4.227,0.14,6.238,0.421c2.008,0.279,3.807,0.841,5.396,1.682c1.588,0.842,2.85,2.012,3.785,3.505
				c0.934,1.496,1.402,3.413,1.402,5.748C525.4,701.17,524.932,703.108,523.998,704.65z M625.006,674.93
				c-3.506-2.383-7.619-4.111-12.338-5.186c-4.721-1.074-9.791-1.613-15.211-1.613h-36.449v99.256h23.973v-37.432h11.916
				c5.139,0,10.094-0.561,14.861-1.682c4.766-1.123,8.971-2.896,12.617-5.328c3.645-2.43,6.539-5.629,8.691-9.604
				c2.148-3.971,3.225-8.854,3.225-14.648c0-5.7-1.006-10.49-3.016-14.37C631.266,680.445,628.51,677.313,625.006,674.93z
				 M610.916,704.65c-0.936,1.543-2.221,2.782-3.855,3.715c-1.637,0.936-3.482,1.591-5.537,1.963
				c-2.057,0.375-4.205,0.561-6.449,0.561H584.98v-23.411h10.514c2.15,0,4.229,0.14,6.24,0.421c2.008,0.279,3.807,0.841,5.396,1.682
				c1.588,0.842,2.85,2.012,3.785,3.505c0.934,1.496,1.402,3.413,1.402,5.748C612.318,701.17,611.85,703.108,610.916,704.65z
				 M647.926,767.387h24.113v-99.256h-24.113V767.387z M754.469,732.898h-0.42l-39.814-64.768h-27.336v99.256h23.271l-0.561-64.909
				h0.42l39.953,64.909h27.197v-99.256h-23.271L754.469,732.898z M815.17,726.311h41.217v-19.207H815.17v-18.785h43.6v-20.188
				h-66.73v99.256h69.254v-20.469H815.17V726.311z M902.648,687.407c1.307-0.793,2.779-1.331,4.416-1.612
				c1.633-0.28,3.246-0.42,4.836-0.42c3.084,0,6.285,0.771,9.604,2.312c3.316,1.543,6.004,3.623,8.061,6.238l15.281-16.121
				c-4.395-4.018-9.512-7.056-15.352-9.113c-5.842-2.055-11.566-3.084-17.174-3.084c-4.674,0-9.301,0.586-13.879,1.753
				c-4.58,1.169-8.691,3.015-12.336,5.538s-6.588,5.747-8.832,9.672c-2.242,3.926-3.365,8.646-3.365,14.16
				c0,4.486,0.723,8.295,2.174,11.425c1.447,3.132,3.365,5.796,5.748,7.991c2.383,2.197,5.092,3.996,8.131,5.396
				c3.035,1.402,6.145,2.619,9.322,3.646c3.271,1.029,6.189,1.986,8.762,2.873c2.57,0.889,4.719,1.871,6.449,2.943
				c1.729,1.076,3.061,2.268,3.996,3.576c0.932,1.309,1.4,2.896,1.4,4.766c0,1.963-0.373,3.645-1.121,5.047
				s-1.752,2.523-3.014,3.365c-1.262,0.84-2.734,1.449-4.416,1.822c-1.682,0.375-3.412,0.561-5.188,0.561
				c-3.926,0-7.875-1.004-11.846-3.014c-3.973-2.01-7.174-4.508-9.604-7.5l-15.701,15.98c4.393,4.58,9.906,8.109,16.543,10.584
				c6.635,2.477,13.504,3.715,20.607,3.715c4.859,0,9.58-0.654,14.16-1.961c4.578-1.309,8.643-3.316,12.195-6.029
				c3.551-2.709,6.379-6.145,8.482-10.303c2.102-4.158,3.154-9.09,3.154-14.791c0-4.953-0.982-9.088-2.945-12.406
				c-1.961-3.316-4.439-6.098-7.43-8.342c-2.992-2.242-6.309-4.041-9.953-5.396c-3.645-1.354-7.15-2.594-10.514-3.716
				c-2.338-0.747-4.441-1.472-6.309-2.173c-1.871-0.701-3.482-1.473-4.838-2.313s-2.383-1.822-3.084-2.944
				c-0.699-1.121-1.051-2.523-1.051-4.205c0-1.963,0.443-3.574,1.332-4.836C900.24,689.23,901.338,688.203,902.648,687.407z
				 M1016.621,716.076c-2.992-2.242-6.309-4.041-9.955-5.396c-3.645-1.354-7.148-2.594-10.514-3.716
				c-2.336-0.747-4.439-1.472-6.309-2.173c-1.871-0.701-3.482-1.473-4.836-2.313c-1.355-0.841-2.383-1.822-3.084-2.944
				c-0.701-1.121-1.053-2.523-1.053-4.205c0-1.963,0.443-3.574,1.332-4.836s1.984-2.289,3.295-3.085
				c1.309-0.793,2.779-1.331,4.416-1.612c1.635-0.28,3.246-0.42,4.836-0.42c3.086,0,6.285,0.771,9.604,2.312
				c3.316,1.543,6.004,3.623,8.061,6.238l15.281-16.121c-4.395-4.018-9.512-7.056-15.352-9.113
				c-5.842-2.055-11.564-3.084-17.172-3.084c-4.676,0-9.301,0.586-13.879,1.753c-4.58,1.169-8.691,3.015-12.338,5.538
				c-3.645,2.523-6.588,5.747-8.832,9.672c-2.242,3.926-3.363,8.646-3.363,14.16c0,4.486,0.723,8.295,2.172,11.425
				c1.449,3.132,3.365,5.796,5.748,7.991c2.383,2.197,5.094,3.996,8.131,5.396c3.037,1.402,6.145,2.619,9.322,3.646
				c3.271,1.029,6.191,1.986,8.764,2.873c2.568,0.889,4.717,1.871,6.447,2.943c1.729,1.076,3.061,2.268,3.996,3.576
				c0.934,1.309,1.402,2.896,1.402,4.766c0,1.963-0.375,3.645-1.123,5.047s-1.752,2.523-3.014,3.365
				c-1.262,0.84-2.732,1.449-4.416,1.822c-1.682,0.375-3.412,0.561-5.186,0.561c-3.926,0-7.875-1.004-11.848-3.014
				s-7.174-4.508-9.602-7.5l-15.701,15.98c4.391,4.58,9.904,8.109,16.541,10.584c6.635,2.477,13.506,3.715,20.609,3.715
				c4.857,0,9.578-0.654,14.158-1.961c4.578-1.309,8.645-3.316,12.197-6.029c3.551-2.709,6.379-6.145,8.48-10.303
				c2.104-4.158,3.154-9.09,3.154-14.791c0-4.953-0.98-9.088-2.943-12.406C1022.088,721.102,1019.611,718.32,1016.621,716.076z"/>
		</g>
	</g>
	<g>
		<g>
			<path fill="#4B76BB" d="M301.754,605.297h-7.422l-24.282,22.912h-0.071v-22.912h-5.188v51.014h5.188v-27.164h0.071l25.508,27.164
				h7.638l-27.165-27.885L301.754,605.297z M333.819,605.297l-22.049,51.014h5.692l5.548-13.402h26.372l5.62,13.402h5.765
				l-21.905-51.014H333.819z M324.956,638.152l11.24-27.092l11.241,27.092H324.956z M366.675,609.908h17.077v46.402h5.188v-46.402
				h17.077v-4.611h-39.342V609.908z M427.488,632.029h24.716v-4.611h-24.716v-17.51h26.444v-4.611H422.3v51.014h32.497v-4.611
				h-27.31V632.029z M526.057,634.189h11.891v15.492c-1.49,0.961-3.436,1.754-5.838,2.379s-5.043,0.936-7.926,0.936
				c-3.268,0-6.209-0.598-8.826-1.797c-2.619-1.199-4.84-2.807-6.664-4.82c-1.826-2.014-3.232-4.363-4.217-7.051
				c-0.984-2.686-1.477-5.514-1.477-8.488c0-2.973,0.492-5.803,1.477-8.488s2.391-5.048,4.217-7.086
				c1.824-2.037,4.045-3.656,6.664-4.855c2.617-1.199,5.559-1.799,8.826-1.799c3.172,0,5.98,0.517,8.432,1.549
				c2.449,1.033,4.562,2.486,6.34,4.359l3.604-3.603c-2.162-2.171-4.756-3.866-7.783-5.087c-3.025-1.221-6.582-1.83-10.664-1.83
				c-3.795,0-7.312,0.673-10.555,2.018c-3.242,1.346-6.053,3.206-8.432,5.584c-2.377,2.378-4.238,5.2-5.583,8.467
				s-2.018,6.844-2.018,10.734c0,3.893,0.66,7.471,1.982,10.736c1.32,3.268,3.158,6.09,5.511,8.467
				c2.354,2.379,5.164,4.24,8.43,5.584c3.268,1.346,6.82,2.018,10.664,2.018c3.459,0,6.797-0.41,10.016-1.229
				s6.221-2.07,9.008-3.756v-23.045h-17.078V634.189z M589.609,630.732c1.584-0.672,2.953-1.574,4.105-2.703
				c1.154-1.127,2.066-2.461,2.738-3.998c0.674-1.537,1.01-3.242,1.01-5.116c0-2.497-0.432-4.611-1.297-6.341
				s-2.078-3.135-3.639-4.215c-1.562-1.081-3.412-1.861-5.549-2.342c-2.139-0.48-4.455-0.721-6.953-0.721h-14.986v51.014h5.188
				v-23.85h8.646l14.123,23.85h6.34l-14.916-24.281C586.295,631.838,588.023,631.404,589.609,630.732z M570.227,627.994v-18.23
				h9.223c1.92,0,3.674,0.17,5.26,0.505c1.586,0.337,2.93,0.864,4.035,1.585c1.104,0.721,1.969,1.657,2.594,2.811
				c0.623,1.152,0.938,2.57,0.938,4.251c0,3.026-1.129,5.296-3.387,6.81c-2.26,1.512-5.477,2.27-9.656,2.27H570.227z
				 M622.033,632.029h24.715v-4.611h-24.715v-17.51h26.443v-4.611h-31.631v51.014h32.496v-4.611h-27.309V632.029z M693.943,634.189
				h11.889v15.492c-1.49,0.961-3.436,1.754-5.836,2.379c-2.404,0.625-5.045,0.936-7.928,0.936c-3.266,0-6.209-0.598-8.826-1.797
				c-2.619-1.199-4.84-2.807-6.664-4.82c-1.826-2.014-3.232-4.363-4.215-7.051c-0.986-2.686-1.479-5.514-1.479-8.488
				c0-2.973,0.492-5.803,1.479-8.488c0.982-2.686,2.389-5.048,4.215-7.086c1.824-2.037,4.045-3.656,6.664-4.855
				c2.617-1.199,5.561-1.799,8.826-1.799c3.172,0,5.98,0.517,8.432,1.549c2.449,1.033,4.562,2.486,6.34,4.359l3.604-3.603
				c-2.162-2.171-4.756-3.866-7.783-5.087c-3.025-1.221-6.58-1.83-10.664-1.83c-3.795,0-7.312,0.673-10.555,2.018
				c-3.242,1.346-6.053,3.206-8.43,5.584c-2.379,2.378-4.24,5.2-5.586,8.467c-1.344,3.267-2.018,6.844-2.018,10.734
				c0,3.893,0.66,7.471,1.982,10.736c1.32,3.268,3.158,6.09,5.512,8.467c2.354,2.379,5.164,4.24,8.432,5.584
				c3.266,1.346,6.82,2.018,10.662,2.018c3.459,0,6.797-0.41,10.016-1.229s6.221-2.07,9.008-3.756v-23.045h-17.076V634.189z
				 M758.719,629.578v4.611h11.889v15.492c-1.49,0.961-3.436,1.754-5.836,2.379c-2.402,0.625-5.045,0.936-7.926,0.936
				c-3.268,0-6.209-0.598-8.826-1.797c-2.619-1.199-4.842-2.807-6.666-4.82c-1.826-2.014-3.23-4.363-4.215-7.051
				c-0.984-2.686-1.477-5.514-1.477-8.488c0-2.973,0.492-5.803,1.477-8.488s2.389-5.048,4.215-7.086
				c1.824-2.037,4.047-3.656,6.666-4.855c2.617-1.199,5.559-1.799,8.826-1.799c3.17,0,5.98,0.517,8.43,1.549
				c2.449,1.033,4.562,2.486,6.342,4.359l3.602-3.603c-2.162-2.171-4.756-3.866-7.781-5.087c-3.027-1.221-6.582-1.83-10.664-1.83
				c-3.795,0-7.314,0.673-10.557,2.018c-3.242,1.346-6.053,3.206-8.43,5.584c-2.379,2.378-4.24,5.2-5.584,8.467
				c-1.346,3.267-2.018,6.844-2.018,10.734c0,3.893,0.66,7.471,1.98,10.736c1.322,3.268,3.158,6.09,5.514,8.467
				c2.352,2.379,5.162,4.24,8.43,5.584c3.266,1.346,6.82,2.018,10.664,2.018c3.459,0,6.797-0.41,10.016-1.229
				c3.217-0.818,6.221-2.07,9.006-3.756v-23.045H758.719z"/>
		</g>
	</g>
	<g>
		<g>
			<path fill="#365992" d="M938.416,623.254c-0.402-0.205-0.854-0.346-1.354-0.418c-0.5-0.073-0.982-0.109-1.445-0.109h-3.326v6.006
				h2.961c0.512,0,1.037-0.043,1.574-0.127c0.535-0.086,1.023-0.238,1.461-0.455c0.439-0.219,0.799-0.535,1.08-0.947
				c0.279-0.412,0.42-0.945,0.42-1.602c0-0.605-0.127-1.098-0.383-1.475C939.146,623.752,938.818,623.461,938.416,623.254z
				 M912.508,624.855c-0.643-0.691-1.418-1.236-2.328-1.638c-0.91-0.4-1.912-0.601-3.004-0.601s-2.086,0.2-2.984,0.601
				c-0.896,0.401-1.674,0.946-2.328,1.638c-0.656,0.691-1.16,1.523-1.512,2.494s-0.527,2.014-0.527,3.129
				c0,1.166,0.182,2.238,0.547,3.221c0.363,0.984,0.867,1.826,1.51,2.531c0.643,0.703,1.414,1.254,2.311,1.654
				c0.898,0.4,1.893,0.602,2.984,0.602s2.088-0.201,2.984-0.602c0.898-0.4,1.676-0.951,2.33-1.654
				c0.656-0.705,1.164-1.547,1.529-2.531c0.363-0.982,0.545-2.055,0.545-3.221c0-1.115-0.182-2.158-0.545-3.129
				C913.654,626.379,913.15,625.547,912.508,624.855z M791.695,604.805v52h236v-52H791.695z M889.451,623.018h-10.809v5.314h9.973
				v5.131h-9.973v10.01h-6.152v-25.77h16.961V623.018z M920.17,636.066c-0.703,1.686-1.68,3.129-2.93,4.33s-2.736,2.129-4.459,2.785
				c-1.723,0.654-3.592,0.982-5.605,0.982s-3.875-0.328-5.586-0.982c-1.711-0.656-3.191-1.584-4.441-2.785s-2.227-2.645-2.93-4.33
				c-0.703-1.688-1.055-3.549-1.055-5.588c0-2.062,0.352-3.924,1.055-5.586s1.68-3.076,2.93-4.24c1.25-1.166,2.73-2.062,4.441-2.693
				s3.572-0.947,5.586-0.947s3.883,0.316,5.605,0.947s3.209,1.527,4.459,2.693c1.25,1.164,2.227,2.578,2.93,4.24
				s1.057,3.523,1.057,5.586C921.227,632.518,920.873,634.379,920.17,636.066z M940.043,643.473l-5.596-10.229h-2.121v10.229h-6.078
				v-25.77h9.828c1.236,0,2.443,0.128,3.621,0.383c1.176,0.254,2.232,0.686,3.166,1.292s1.68,1.407,2.238,2.401
				c0.559,0.996,0.838,2.234,0.838,3.713c0,1.748-0.475,3.217-1.42,4.404c-0.947,1.189-2.256,2.039-3.932,2.547l6.734,11.029
				H940.043z"/>
		</g>
	</g>
</g>
<g>
	<path fill-rule="evenodd" clip-rule="evenodd" fill="#4B76BB" d="M115.062,22.543L1.558,52.816L34.645,78.33l-15.652,39.255
		l113.505-30.273L115.062,22.543z"/>
	<path fill-rule="evenodd" clip-rule="evenodd" fill="#4B76BB" d="M362.639,22.536l113.299,30.277l-33.025,25.518l15.623,39.262
		L345.237,87.314L362.639,22.536z"/>
	<path fill-rule="evenodd" clip-rule="evenodd" fill="#26487C" d="M132.498,87.27L70.705,67.607V20.215h44.065L132.498,87.27z"/>
	<path fill-rule="evenodd" clip-rule="evenodd" fill="#26487C" d="M345.237,87.274l61.682-19.665V20.21h-43.986L345.237,87.274z"/>
	<path fill="#4B76BB" d="M238.811,97.27l4.05,8.728l9.45,1.203l-6.947,6.597l1.791,9.471l-8.344-4.65l-8.344,4.65l1.791-9.471
		l-6.947-6.597l9.45-1.203L238.811,97.27z"/>
	<g>
		<g>
			<path fill="#365992" d="M172.166,35.202h5.512l-2.725-7.525L172.166,35.202z M277.055,35.202h5.512l-2.725-7.525L277.055,35.202z
				 M129.335,34.335h2.416l0.434-3.097h-2.446L129.335,34.335z M305.174,26.562c-0.352-0.186-0.748-0.31-1.193-0.372
				c-0.443-0.062-0.902-0.093-1.377-0.093h-2.322v5.172h2.229c0.496,0,0.971-0.041,1.426-0.124c0.453-0.082,0.861-0.227,1.223-0.434
				c0.361-0.206,0.645-0.479,0.852-0.82s0.311-0.769,0.311-1.285c0-0.516-0.104-0.939-0.311-1.27S305.524,26.748,305.174,26.562z
				 M154.244,26.547c-0.342-0.175-0.726-0.294-1.15-0.356c-0.426-0.062-0.836-0.093-1.229-0.093h-2.832v5.11h2.521
				c0.436,0,0.882-0.036,1.338-0.108c0.457-0.072,0.871-0.202,1.245-0.388s0.68-0.454,0.918-0.805
				c0.239-0.352,0.358-0.806,0.358-1.363c0-0.516-0.109-0.934-0.327-1.254C154.867,26.971,154.586,26.723,154.244,26.547z M70.705,0
				v67.064h336.214V0H70.705z M138.658,31.238h-3.066l-0.434,3.097h2.633v3.222h-3.035l-0.929,6.193h-3.407l0.898-6.193h-2.446
				l-0.898,6.193h-3.406l0.897-6.193h-2.632v-3.222h3.065l0.465-3.097h-2.633v-3.221h3.035l0.898-6.193h3.438l-0.898,6.193h2.416
				l0.898-6.193h3.406l-0.867,6.193h2.602V31.238z M155.628,43.75l-4.761-8.702h-1.805v8.702h-5.172V21.824h8.361
				c1.054,0,2.08,0.108,3.081,0.325c1.002,0.217,1.9,0.583,2.695,1.1c0.794,0.516,1.429,1.197,1.904,2.044
				c0.475,0.847,0.712,1.899,0.712,3.158c0,1.486-0.402,2.736-1.208,3.747c-0.805,1.012-1.92,1.734-3.344,2.168l5.729,9.384H155.628
				z M180.836,43.75l-1.703-4.305h-8.485l-1.61,4.305h-5.761l9.198-21.926h5.141l9.104,21.926H180.836z M203.908,43.75h-13.812
				V21.824h5.327v17.312h8.485V43.75z M221.746,43.75h-13.812V21.824h5.326v17.312h8.486V43.75z M234.04,34.459v9.291h-5.296v-9.291
				l-8.237-12.635h6.41l4.677,8.113l4.676-8.113h6.193L234.04,34.459z M264.791,43.75h-5.295v-9.167h-8.548v9.167h-5.295V21.824
				h5.295v8.3h8.548v-8.3h5.295V43.75z M285.727,43.75l-1.705-4.305h-8.484l-1.611,4.305h-5.76l9.197-21.926h5.141l9.105,21.926
				H285.727z M310.903,31.812c-0.475,0.878-1.115,1.585-1.92,2.121c-0.805,0.537-1.734,0.93-2.787,1.177
				c-1.053,0.248-2.146,0.372-3.283,0.372h-2.631v8.269h-5.297V21.824h8.053c1.197,0,2.316,0.119,3.359,0.356
				s1.951,0.619,2.725,1.146c0.775,0.526,1.385,1.219,1.828,2.075s0.666,1.915,0.666,3.174
				C311.616,29.855,311.377,30.935,310.903,31.812z M332.272,31.812c-0.477,0.878-1.115,1.585-1.92,2.121
				c-0.807,0.537-1.734,0.93-2.787,1.177c-1.053,0.248-2.148,0.372-3.283,0.372h-2.633v8.269h-5.295V21.824h8.051
				c1.197,0,2.318,0.119,3.361,0.356c1.041,0.237,1.951,0.619,2.725,1.146s1.383,1.219,1.828,2.075
				c0.443,0.856,0.664,1.915,0.664,3.174C332.983,29.855,332.747,30.935,332.272,31.812z M347.819,34.459v9.291h-5.297v-9.291
				l-8.236-12.635h6.41l4.676,8.113l4.676-8.113h6.193L347.819,34.459z M326.542,26.562c-0.35-0.186-0.748-0.31-1.191-0.372
				c-0.443-0.062-0.904-0.093-1.379-0.093h-2.322v5.172h2.23c0.496,0,0.971-0.041,1.424-0.124c0.455-0.082,0.861-0.227,1.223-0.434
				c0.361-0.206,0.646-0.479,0.854-0.82c0.205-0.341,0.309-0.769,0.309-1.285c0-0.516-0.104-0.939-0.309-1.27
				C327.172,27.007,326.893,26.748,326.542,26.562z"/>
		</g>
	</g>
</g>
</svg>
