<?xml version="1.0" encoding="utf-8"?>
<!-- Generator: Adobe Illustrator 16.0.4, SVG Export Plug-In . SVG Version: 6.00 Build 0)  -->
<!DOCTYPE svg PUBLIC "-//W3C//DTD SVG 1.1//EN" "http://www.w3.org/Graphics/SVG/1.1/DTD/svg11.dtd">
<svg version="1.1" id="Layer_1" xmlns="http://www.w3.org/2000/svg" xmlns:xlink="http://www.w3.org/1999/xlink" x="0px" y="0px"
	 width="763px" height="171px" viewBox="0 0 763 171" enable-background="new 0 0 763 171" xml:space="preserve">
<g>
	<g>
		<g>
			<path fill="#365992" d="M62.665,101.702H23.973V64.131H0v99.255h23.973V121.89h38.692v41.496h23.972V64.131H62.665V101.702z
				 M136.544,64.131l-41.637,99.255h26.076l7.29-19.487h38.412l7.71,19.487h26.636l-41.216-99.255H136.544z M135.142,124.693
				l12.617-34.066l12.337,34.066H135.142z M273.297,70.93c-3.505-2.383-7.618-4.111-12.337-5.187
				c-4.72-1.073-9.791-1.612-15.21-1.612h-36.449v99.255h23.972v-37.432h11.916c5.14,0,10.094-0.561,14.861-1.682
				c4.766-1.122,8.972-2.896,12.617-5.328c3.645-2.429,6.54-5.629,8.691-9.603c2.148-3.971,3.225-8.854,3.225-14.649
				c0-5.7-1.006-10.49-3.015-14.37C279.558,76.446,276.802,73.313,273.297,70.93z M259.208,100.651
				c-0.936,1.542-2.221,2.782-3.855,3.715c-1.636,0.936-3.482,1.59-5.537,1.962c-2.057,0.375-4.205,0.562-6.449,0.562h-10.094
				V83.478h10.515c2.149,0,4.228,0.14,6.238,0.42c2.009,0.28,3.808,0.841,5.397,1.682c1.588,0.841,2.85,2.011,3.785,3.505
				c0.934,1.496,1.402,3.413,1.402,5.748C260.61,97.17,260.142,99.108,259.208,100.651z M360.215,70.93
				c-3.505-2.383-7.618-4.111-12.337-5.187c-4.721-1.073-9.791-1.612-15.211-1.612h-36.449v99.255h23.973v-37.432h11.916
				c5.139,0,10.094-0.561,14.86-1.682c4.767-1.122,8.972-2.896,12.617-5.328c3.645-2.429,6.54-5.629,8.691-9.603
				c2.149-3.971,3.225-8.854,3.225-14.649c0-5.7-1.005-10.49-3.015-14.37C366.476,76.446,363.72,73.313,360.215,70.93z
				 M346.126,100.651c-0.936,1.542-2.222,2.782-3.855,3.715c-1.637,0.936-3.482,1.59-5.537,1.962
				c-2.058,0.375-4.206,0.562-6.449,0.562H320.19V83.478h10.514c2.149,0,4.229,0.14,6.239,0.42c2.009,0.28,3.807,0.841,5.397,1.682
				c1.588,0.841,2.85,2.011,3.785,3.505c0.933,1.496,1.401,3.413,1.401,5.748C347.527,97.17,347.059,99.108,346.126,100.651z
				 M383.136,163.386h24.112V64.131h-24.112V163.386z M489.679,128.899h-0.421l-39.813-64.768h-27.337v99.255h23.271l-0.561-64.909
				h0.42l39.954,64.909h27.197V64.131h-23.271L489.679,128.899z M550.38,122.31h41.216v-19.206H550.38V84.318h43.599V64.131h-66.729
				v99.255h69.253v-20.469H550.38V122.31z M637.857,83.407c1.308-0.793,2.779-1.332,4.416-1.612
				c1.634-0.281,3.246-0.421,4.837-0.421c3.084,0,6.284,0.771,9.603,2.313c3.316,1.542,6.004,3.623,8.061,6.238l15.281-16.122
				c-4.395-4.017-9.511-7.055-15.351-9.112c-5.843-2.055-11.566-3.084-17.174-3.084c-4.674,0-9.301,0.585-13.879,1.752
				c-4.58,1.169-8.691,3.014-12.336,5.538c-3.646,2.523-6.589,5.748-8.832,9.673s-3.365,8.646-3.365,14.159
				c0,4.486,0.723,8.295,2.173,11.425c1.448,3.132,3.365,5.795,5.748,7.991c2.384,2.197,5.093,3.996,8.131,5.397
				c3.036,1.401,6.145,2.618,9.323,3.646c3.271,1.029,6.189,1.986,8.762,2.873c2.569,0.89,4.718,1.871,6.448,2.944
				c1.729,1.075,3.061,2.267,3.996,3.575c0.933,1.31,1.401,2.897,1.401,4.766c0,1.963-0.374,3.646-1.121,5.047
				c-0.749,1.402-1.753,2.523-3.015,3.365c-1.262,0.841-2.733,1.449-4.416,1.822c-1.682,0.375-3.412,0.561-5.187,0.561
				c-3.926,0-7.875-1.003-11.846-3.014c-3.974-2.009-7.174-4.508-9.604-7.5l-15.701,15.981c4.392,4.58,9.905,8.108,16.542,10.584
				c6.635,2.476,13.505,3.715,20.608,3.715c4.858,0,9.579-0.655,14.159-1.962c4.578-1.309,8.644-3.316,12.196-6.029
				c3.551-2.709,6.379-6.144,8.481-10.303c2.103-4.158,3.154-9.089,3.154-14.791c0-4.952-0.981-9.088-2.944-12.406
				c-1.962-3.316-4.439-6.098-7.43-8.342c-2.992-2.242-6.309-4.041-9.953-5.396c-3.646-1.354-7.15-2.594-10.515-3.715
				c-2.337-0.747-4.44-1.472-6.309-2.173c-1.87-0.701-3.482-1.472-4.837-2.313c-1.355-0.841-2.383-1.822-3.084-2.944
				c-0.7-1.122-1.051-2.523-1.051-4.206c0-1.963,0.442-3.575,1.331-4.836C635.45,85.23,636.548,84.203,637.857,83.407z
				 M751.83,112.076c-2.992-2.242-6.309-4.041-9.954-5.396c-3.645-1.354-7.149-2.594-10.514-3.715
				c-2.337-0.747-4.44-1.472-6.309-2.173c-1.871-0.701-3.482-1.472-4.837-2.313c-1.355-0.841-2.383-1.822-3.084-2.944
				s-1.052-2.523-1.052-4.206c0-1.963,0.443-3.575,1.332-4.836c0.888-1.262,1.984-2.289,3.295-3.084
				c1.308-0.793,2.779-1.332,4.416-1.612c1.634-0.281,3.246-0.421,4.836-0.421c3.085,0,6.285,0.771,9.604,2.313
				c3.316,1.542,6.004,3.623,8.061,6.238l15.281-16.122c-4.395-4.017-9.512-7.055-15.352-9.112
				c-5.842-2.055-11.565-3.084-17.173-3.084c-4.675,0-9.301,0.585-13.879,1.752c-4.58,1.169-8.691,3.014-12.337,5.538
				c-3.645,2.523-6.589,5.748-8.832,9.673c-2.242,3.925-3.364,8.646-3.364,14.159c0,4.486,0.723,8.295,2.173,11.425
				c1.448,3.132,3.365,5.795,5.748,7.991c2.383,2.197,5.093,3.996,8.131,5.397c3.036,1.401,6.145,2.618,9.322,3.646
				c3.271,1.029,6.19,1.986,8.763,2.873c2.569,0.89,4.718,1.871,6.448,2.944c1.729,1.075,3.061,2.267,3.995,3.575
				c0.934,1.31,1.402,2.897,1.402,4.766c0,1.963-0.375,3.646-1.122,5.047c-0.749,1.402-1.752,2.523-3.014,3.365
				c-1.262,0.841-2.733,1.449-4.416,1.822c-1.682,0.375-3.412,0.561-5.187,0.561c-3.926,0-7.875-1.003-11.847-3.014
				c-3.974-2.009-7.174-4.508-9.603-7.5l-15.701,15.981c4.392,4.58,9.905,8.108,16.542,10.584
				c6.635,2.476,13.505,3.715,20.608,3.715c4.858,0,9.578-0.655,14.159-1.962c4.578-1.309,8.644-3.316,12.196-6.029
				c3.551-2.709,6.379-6.144,8.481-10.303c2.103-4.158,3.154-9.089,3.154-14.791c0-4.952-0.981-9.088-2.944-12.406
				C757.297,117.101,754.82,114.32,751.83,112.076z"/>
		</g>
	</g>
	<g>
		<g>
			<path fill="#4B76BB" d="M36.964,1.297h-7.422L5.26,24.209H5.188V1.297H0v51.014h5.188V25.147H5.26l25.507,27.164h7.638
				L11.24,24.426L36.964,1.297z M69.028,1.297L46.979,52.311h5.692l5.548-13.402h26.372l5.62,13.402h5.765L74.071,1.297H69.028z
				 M60.165,34.153l11.24-27.092l11.241,27.092H60.165z M101.884,5.908h17.077v46.403h5.188V5.908h17.077V1.297h-39.342V5.908z
				 M162.698,28.029h24.715v-4.611h-24.715V5.908h26.444V1.297H157.51v51.014h32.497V47.7h-27.309V28.029z M261.267,30.19h11.891
				v15.492c-1.49,0.961-3.436,1.754-5.838,2.378c-2.402,0.625-5.043,0.937-7.926,0.937c-3.268,0-6.209-0.599-8.826-1.798
				c-2.619-1.199-4.84-2.806-6.664-4.819c-1.826-2.015-3.232-4.364-4.217-7.051c-0.984-2.686-1.477-5.514-1.477-8.488
				c0-2.974,0.492-5.803,1.477-8.489c0.984-2.685,2.391-5.047,4.217-7.085c1.824-2.038,4.045-3.657,6.664-4.855
				c2.617-1.199,5.559-1.799,8.826-1.799c3.172,0,5.98,0.517,8.432,1.549c2.449,1.033,4.562,2.486,6.34,4.359l3.604-3.603
				c-2.162-2.17-4.756-3.866-7.783-5.086C266.96,0.61,263.403,0,259.321,0c-3.795,0-7.312,0.673-10.555,2.017
				c-3.242,1.346-6.053,3.207-8.432,5.584c-2.377,2.378-4.238,5.2-5.584,8.466c-1.346,3.267-2.018,6.845-2.018,10.735
				c0,3.892,0.66,7.471,1.982,10.736c1.32,3.268,3.158,6.089,5.512,8.467s5.164,4.24,8.43,5.584
				c3.268,1.345,6.82,2.018,10.664,2.018c3.459,0,6.797-0.41,10.016-1.229s6.221-2.07,9.008-3.756V25.579h-17.078V30.19z
				 M324.819,26.732c1.584-0.672,2.953-1.573,4.105-2.702c1.154-1.128,2.066-2.461,2.738-3.999c0.674-1.537,1.01-3.242,1.01-5.116
				c0-2.497-0.432-4.611-1.297-6.341s-2.078-3.134-3.639-4.215c-1.562-1.081-3.412-1.861-5.549-2.342
				c-2.139-0.479-4.455-0.72-6.953-0.72h-14.986v51.014h5.188v-23.85h8.646l14.123,23.85h6.34L319.63,28.029
				C321.505,27.837,323.233,27.405,324.819,26.732z M305.437,23.994V5.764h9.223c1.92,0,3.674,0.169,5.26,0.504
				c1.586,0.336,2.93,0.865,4.035,1.585c1.104,0.721,1.969,1.657,2.594,2.81c0.623,1.153,0.938,2.57,0.938,4.251
				c0,3.026-1.129,5.296-3.387,6.809c-2.26,1.513-5.477,2.27-9.656,2.27H305.437z M357.243,28.029h24.715v-4.611h-24.715V5.908
				h26.443V1.297h-31.631v51.014h32.496V47.7h-27.309V28.029z M429.153,30.19h11.889v15.492c-1.49,0.961-3.436,1.754-5.836,2.378
				c-2.404,0.625-5.045,0.937-7.928,0.937c-3.266,0-6.209-0.599-8.826-1.798c-2.619-1.199-4.84-2.806-6.664-4.819
				c-1.826-2.015-3.232-4.364-4.215-7.051c-0.986-2.686-1.479-5.514-1.479-8.488c0-2.974,0.492-5.803,1.479-8.489
				c0.982-2.685,2.389-5.047,4.215-7.085c1.824-2.038,4.045-3.657,6.664-4.855c2.617-1.199,5.561-1.799,8.826-1.799
				c3.172,0,5.98,0.517,8.432,1.549c2.449,1.033,4.562,2.486,6.34,4.359l3.604-3.603c-2.162-2.17-4.756-3.866-7.783-5.086
				C434.845,0.61,431.29,0,427.206,0c-3.795,0-7.312,0.673-10.555,2.017c-3.242,1.346-6.053,3.207-8.43,5.584
				c-2.379,2.378-4.24,5.2-5.586,8.466c-1.344,3.267-2.018,6.845-2.018,10.735c0,3.892,0.66,7.471,1.982,10.736
				c1.32,3.268,3.158,6.089,5.512,8.467s5.164,4.24,8.432,5.584c3.266,1.345,6.82,2.018,10.662,2.018
				c3.459,0,6.797-0.41,10.016-1.229s6.221-2.07,9.008-3.756V25.579h-17.076V30.19z M493.929,25.579v4.611h11.889v15.492
				c-1.49,0.961-3.436,1.754-5.836,2.378c-2.402,0.625-5.045,0.937-7.926,0.937c-3.268,0-6.209-0.599-8.826-1.798
				c-2.619-1.199-4.842-2.806-6.666-4.819c-1.826-2.015-3.23-4.364-4.215-7.051c-0.984-2.686-1.477-5.514-1.477-8.488
				c0-2.974,0.492-5.803,1.477-8.489c0.984-2.685,2.389-5.047,4.215-7.085c1.824-2.038,4.047-3.657,6.666-4.855
				c2.617-1.199,5.559-1.799,8.826-1.799c3.17,0,5.98,0.517,8.43,1.549c2.449,1.033,4.562,2.486,6.342,4.359l3.602-3.603
				c-2.162-2.17-4.756-3.866-7.781-5.086C499.62,0.61,496.065,0,491.983,0c-3.795,0-7.314,0.673-10.557,2.017
				c-3.242,1.346-6.053,3.207-8.43,5.584c-2.379,2.378-4.24,5.2-5.584,8.466c-1.346,3.267-2.018,6.845-2.018,10.735
				c0,3.892,0.66,7.471,1.98,10.736c1.322,3.268,3.158,6.089,5.514,8.467c2.352,2.378,5.162,4.24,8.43,5.584
				c3.266,1.345,6.82,2.018,10.664,2.018c3.459,0,6.797-0.41,10.016-1.229c3.217-0.818,6.221-2.07,9.006-3.756V25.579H493.929z"/>
		</g>
	</g>
	<g>
		<g>
			<path fill="#365992" d="M673.626,19.254c-0.403-0.206-0.854-0.346-1.354-0.418s-0.982-0.109-1.445-0.109H667.5v6.006h2.962
				c0.512,0,1.036-0.043,1.573-0.127c0.536-0.086,1.023-0.237,1.462-0.455c0.439-0.219,0.799-0.534,1.079-0.947
				c0.28-0.412,0.421-0.945,0.421-1.602c0-0.605-0.128-1.098-0.384-1.474C674.356,19.751,674.027,19.46,673.626,19.254z
				 M647.718,20.855c-0.643-0.691-1.419-1.236-2.329-1.637c-0.91-0.4-1.911-0.601-3.003-0.601s-2.087,0.2-2.984,0.601
				c-0.897,0.401-1.674,0.946-2.329,1.637s-1.159,1.523-1.511,2.494s-0.527,2.014-0.527,3.129c0,1.166,0.182,2.239,0.546,3.222
				c0.364,0.983,0.867,1.826,1.511,2.53c0.643,0.703,1.413,1.255,2.311,1.655s1.893,0.601,2.984,0.601s2.087-0.2,2.984-0.601
				s1.675-0.952,2.33-1.655c0.655-0.704,1.164-1.547,1.528-2.53c0.364-0.982,0.546-2.056,0.546-3.222
				c0-1.115-0.182-2.158-0.546-3.129S648.36,21.546,647.718,20.855z M526.905,0.804v52h236v-52H526.905z M624.661,19.018h-10.81
				v5.314h9.973v5.132h-9.973v10.009H607.7V13.704h16.961V19.018z M655.38,32.066c-0.704,1.687-1.681,3.13-2.931,4.331
				c-1.25,1.2-2.735,2.129-4.458,2.784c-1.724,0.655-3.592,0.982-5.605,0.982s-3.876-0.327-5.587-0.982
				c-1.71-0.655-3.19-1.584-4.44-2.784c-1.25-1.201-2.227-2.645-2.93-4.331c-0.704-1.687-1.056-3.549-1.056-5.588
				c0-2.062,0.352-3.924,1.056-5.586c0.703-1.662,1.68-3.076,2.93-4.24c1.25-1.165,2.73-2.062,4.44-2.693
				c1.711-0.631,3.573-0.946,5.587-0.946s3.882,0.315,5.605,0.946c1.723,0.631,3.208,1.528,4.458,2.693
				c1.25,1.165,2.227,2.578,2.931,4.24c0.703,1.662,1.056,3.524,1.056,5.586C656.436,28.517,656.083,30.379,655.38,32.066z
				 M675.252,39.472l-5.595-10.228h-2.121v10.228h-6.078V13.704h9.827c1.237,0,2.444,0.127,3.621,0.382
				c1.177,0.255,2.232,0.686,3.167,1.292c0.934,0.607,1.68,1.407,2.238,2.402c0.558,0.996,0.837,2.233,0.837,3.713
				c0,1.747-0.474,3.216-1.42,4.403c-0.946,1.189-2.256,2.039-3.931,2.548l6.733,11.028H675.252z"/>
		</g>
	</g>
</g>
</svg>
